<svg width="40" height="40" viewBox="0 0 40 40" fill="none" xmlns="http://www.w3.org/2000/svg">
<g id="Icones">
<path id="Vector (Stroke)" fill-rule="evenodd" clip-rule="evenodd" d="M19.9987 4.58325C11.4843 4.58325 4.58203 11.4855 4.58203 19.9999C4.58203 28.5143 11.4843 35.4166 19.9987 35.4166C28.5131 35.4166 35.4154 28.5143 35.4154 19.9999C35.4154 11.4855 28.5131 4.58325 19.9987 4.58325ZM2.08203 19.9999C2.08203 10.1048 10.1036 2.08325 19.9987 2.08325C29.8938 2.08325 37.9154 10.1048 37.9154 19.9999C37.9154 29.895 29.8938 37.9166 19.9987 37.9166C10.1036 37.9166 2.08203 29.895 2.08203 19.9999Z" fill="white"/>
<path id="Vector (Stroke)_2" fill-rule="evenodd" clip-rule="evenodd" d="M20 13.75C20.6904 13.75 21.25 14.3096 21.25 15V18.75H25C25.6904 18.75 26.25 19.3096 26.25 20C26.25 20.6904 25.6904 21.25 25 21.25H21.25V25C21.25 25.6904 20.6904 26.25 20 26.25C19.3096 26.25 18.75 25.6904 18.75 25V21.25H15C14.3096 21.25 13.75 20.6904 13.75 20C13.75 19.3096 14.3096 18.75 15 18.75H18.75V15C18.75 14.3096 19.3096 13.75 20 13.75Z" fill="white"/>
</g>
</svg>
